<svg width="59" height="43" viewBox="0 0 59 43" fill="none" xmlns="http://www.w3.org/2000/svg">
<path d="M24.5832 39.4167V26.875H19.6665V16.125C19.6665 15.1396 20.1483 14.2963 21.112 13.5952C22.0757 12.894 23.2327 12.5429 24.5832 12.5417H34.4165C35.7686 12.5417 36.9265 12.8928 37.8901 13.5952C38.8538 14.2975 39.3348 15.1408 39.3332 16.125V26.875H34.4165V39.4167H24.5832ZM29.4998 10.75C28.1478 10.75 26.9907 10.3994 26.0287 9.69829C25.0666 8.99715 24.5848 8.15328 24.5832 7.16667C24.5815 6.18005 25.0634 5.33678 26.0287 4.63683C26.994 3.93689 28.151 3.58572 29.4998 3.58333C30.8486 3.58094 32.0065 3.93211 32.9735 4.63683C33.9404 5.34155 34.4214 6.18483 34.4165 7.16667C34.4116 8.1485 33.9306 8.99237 32.9735 9.69829C32.0164 10.4042 30.8585 10.7548 29.4998 10.75Z" fill="#7D0A0A"/>
</svg>
